<svg xmlns="http://www.w3.org/2000/svg" viewBox="0 0 200 200" width="1024" height="1024">
  <defs>
    <linearGradient id="violetGrad" x1="0%" y1="0%" x2="100%" y2="100%">
      <stop offset="0%" stop-color="#8B5CF6" />
      <stop offset="100%" stop-color="#6D28D9" />
    </linearGradient>
  </defs>
  <!-- Rounded Purple Squircle Icon Background -->
  <rect x="10" y="10" width="180" height="180" rx="42" fill="url(#violetGrad)" />
  
  <!-- Geometric PM Monogram House Emblem -->
  <g stroke="#FFFFFF" stroke-width="12" stroke-linecap="round" stroke-linejoin="round" fill="none">
    <!-- Outer Gable Roof -->
    <path d="M 48,96 L 100,56 L 152,96" />
    <!-- Chimney -->
    <path d="M 126,68 L 126,54 L 134,54 L 134,74" />
    <!-- Left & Right Outer Walls -->
    <path d="M 48,96 L 48,144" />
    <path d="M 152,96 L 152,144" />
    <!-- Base Left & Right Feet -->
    <path d="M 48,144 L 66,144" />
    <path d="M 134,144 L 152,144" />
    
    <!-- M Monogram Stems -->
    <path d="M 68,98 L 68,144" />
    <path d="M 132,98 L 132,144" />
    <!-- M Center Valley V-Shape -->
    <path d="M 68,98 L 100,125 L 132,98" />
    
    <!-- Center P Hexagon Loop -->
    <path d="M 100,72 L 118,87 L 100,102 L 82,87 Z" />
    <!-- Center P Vertical Stem -->
    <path d="M 100,102 L 100,144" />
  </g>
</svg>